<svg xmlns="http://www.w3.org/2000/svg" xmlns:xlink="http://www.w3.org/1999/xlink" contentStyleType="text/css" data-diagram-type="DESCRIPTION" height="789px" preserveAspectRatio="none" style="width:586px;height:789px;background:#FFFFFF;" version="1.1" viewBox="0 0 586 789" width="586px" zoomAndPan="magnify"><defs/><g><!--cluster GranaLivre--><g class="cluster" data-entity="GranaLivre" data-source-line="5" data-uid="ent0003" id="cluster_GranaLivre"><rect fill="none" height="776" rx="2.5" ry="2.5" style="stroke:#181818;stroke-width:1;" width="474.13" x="106.2" y="7"/><text fill="#000000" font-family="sans-serif" font-size="14" font-weight="bold" lengthAdjust="spacing" textLength="86.502" x="300.014" y="21.9951">GranaLivre</text></g><!--entity UC_Entrar--><g class="entity" data-entity="UC_Entrar" data-source-line="6" data-uid="ent0004" id="entity_UC_Entrar"><ellipse cx="530.7069" cy="452.0036" fill="#F1F1F1" rx="33.6169" ry="14.5236" style="stroke:#181818;stroke-width:0.5;"/><text fill="#000000" font-family="sans-serif" font-size="14" lengthAdjust="spacing" textLength="43.2988" x="509.0575" y="456.6521">Entrar</text></g><!--entity UC_Cadastrar--><g class="entity" data-entity="UC_Cadastrar" data-source-line="7" data-uid="ent0005" id="entity_UC_Cadastrar"><ellipse cx="247.1542" cy="57.0036" fill="#F1F1F1" rx="51.5742" ry="14.5236" style="stroke:#181818;stroke-width:0.5;"/><text fill="#000000" font-family="sans-serif" font-size="14" lengthAdjust="spacing" textLength="68.6943" x="212.8071" y="61.6521">Cadastrar</text></g><!--entity UC_Resumo--><g class="entity" data-entity="UC_Resumo" data-source-line="8" data-uid="ent0006" id="entity_UC_Resumo"><ellipse cx="247.1506" cy="132.0001" fill="#F1F1F1" rx="113.8006" ry="25.1601" style="stroke:#181818;stroke-width:0.5;"/><text fill="#000000" font-family="sans-serif" font-size="14" lengthAdjust="spacing" textLength="206.0762" x="144.1125" y="136.6486">Visualizar Resumo Financeiro</text></g><!--entity UC_Saidas--><g class="entity" data-entity="UC_Saidas" data-source-line="9" data-uid="ent0007" id="entity_UC_Saidas"><ellipse cx="247.1512" cy="209.9982" fill="#F1F1F1" rx="75.1912" ry="17.4382" style="stroke:#181818;stroke-width:0.5;"/><text fill="#000000" font-family="sans-serif" font-size="14" lengthAdjust="spacing" textLength="119.1914" x="187.5555" y="214.6467">Gerenciar Saídas</text></g><!--entity UC_DespesasRec--><g class="entity" data-entity="UC_DespesasRec" data-source-line="10" data-uid="ent0008" id="entity_UC_DespesasRec"><ellipse cx="247.1467" cy="289.9993" fill="#F1F1F1" rx="124.9467" ry="27.3893" style="stroke:#181818;stroke-width:0.5;"/><text fill="#000000" font-family="sans-serif" font-size="14" lengthAdjust="spacing" textLength="229.8789" x="132.2073" y="294.6478">Gerenciar Despesas Recorrentes</text></g><!--entity UC_Entradas--><g class="entity" data-entity="UC_Entradas" data-source-line="11" data-uid="ent0009" id="entity_UC_Entradas"><ellipse cx="247.155" cy="371.001" fill="#F1F1F1" rx="82.005" ry="18.801" style="stroke:#181818;stroke-width:0.5;"/><text fill="#000000" font-family="sans-serif" font-size="14" lengthAdjust="spacing" textLength="135.3789" x="179.4655" y="375.6494">Gerenciar Entradas</text></g><!--entity UC_EntradasRec--><g class="entity" data-entity="UC_EntradasRec" data-source-line="12" data-uid="ent0010" id="entity_UC_EntradasRec"><ellipse cx="247.149" cy="452.0038" fill="#F1F1F1" rx="122.569" ry="26.9138" style="stroke:#181818;stroke-width:0.5;"/><text fill="#000000" font-family="sans-serif" font-size="14" lengthAdjust="spacing" textLength="224.8271" x="134.7354" y="456.6522">Gerenciar Entradas Recorrentes</text></g><!--entity UC_Patrimonio--><g class="entity" data-entity="UC_Patrimonio" data-source-line="13" data-uid="ent0011" id="entity_UC_Patrimonio"><ellipse cx="247.1491" cy="534.0018" fill="#F1F1F1" rx="87.8091" ry="19.9618" style="stroke:#181818;stroke-width:0.5;"/><text fill="#000000" font-family="sans-serif" font-size="14" lengthAdjust="spacing" textLength="148.7637" x="172.7673" y="538.6503">Gerenciar Patrimônio</text></g><!--entity UC_Investimentos--><g class="entity" data-entity="UC_Investimentos" data-source-line="14" data-uid="ent0012" id="entity_UC_Investimentos"><ellipse cx="247.1478" cy="611.0036" fill="#F1F1F1" rx="98.2178" ry="22.0436" style="stroke:#181818;stroke-width:0.5;"/><text fill="#000000" font-family="sans-serif" font-size="14" lengthAdjust="spacing" textLength="172.1221" x="161.0868" y="615.652">Gerenciar Investimentos</text></g><!--entity UC_Conta--><g class="entity" data-entity="UC_Conta" data-source-line="16" data-uid="ent0013" id="entity_UC_Conta"><ellipse cx="247.1496" cy="685.0019" fill="#F1F1F1" rx="73.2096" ry="17.0419" style="stroke:#181818;stroke-width:0.5;"/><text fill="#000000" font-family="sans-serif" font-size="14" lengthAdjust="spacing" textLength="114.3584" x="189.9704" y="689.6504">Gerenciar Conta</text></g><!--entity UC_Sair--><g class="entity" data-entity="UC_Sair" data-source-line="17" data-uid="ent0014" id="entity_UC_Sair"><ellipse cx="247.1506" cy="752.0036" fill="#F1F1F1" rx="22.1706" ry="14.5236" style="stroke:#181818;stroke-width:0.5;"/><text fill="#000000" font-family="sans-serif" font-size="14" lengthAdjust="spacing" textLength="27.1113" x="233.5949" y="756.6521">Sair</text></g><!--entity User--><g class="entity" data-entity="User" data-source-line="3" data-uid="ent0002" id="entity_User"><ellipse cx="32.6021" cy="392.35" fill="#F1F1F1" rx="8" ry="8" style="stroke:#181818;stroke-width:0.5;"/><path d="M32.6021,400.35 L32.6021,427.35 M19.6021,408.35 L45.6021,408.35 M32.6021,427.35 L19.6021,442.35 M32.6021,427.35 L45.6021,442.35" fill="none" style="stroke:#181818;stroke-width:0.5;"/><text fill="#000000" font-family="sans-serif" font-size="14" lengthAdjust="spacing" textLength="53.2041" x="6" y="456.8451">Usuário</text></g><!--link UC_Saidas to UC_Entrar--><g class="link" data-entity-1="UC_Saidas" data-entity-2="UC_Entrar" data-source-line="20" data-uid="lnk15" id="link_UC_Saidas_UC_Entrar"><path d="M306.14,221.21 C327.59,226.67 351.65,234.4 372.1,245 C420.35,270.01 433.38,279.38 467.1,322 C496.47,359.13 514.6824,406.6047 523.2124,431.8947" fill="none" id="UC_Saidas-to-UC_Entrar" style="stroke:#181818;stroke-width:1;"/><polygon fill="#181818" points="525.13,437.58,526.0438,427.7736,523.532,432.8422,518.4634,430.3304,525.13,437.58" style="stroke:#181818;stroke-width:1;"/><text fill="#000000" font-family="sans-serif" font-size="13" lengthAdjust="spacing" textLength="63.0068" x="403.1" y="258.2569">«include»</text></g><!--link UC_DespesasRec to UC_Entrar--><g class="link" data-entity-1="UC_DespesasRec" data-entity-2="UC_Entrar" data-source-line="21" data-uid="lnk16" id="link_UC_DespesasRec_UC_Entrar"><path d="M323.47,312.03 C368.11,327.48 424.17,351.27 467.1,384 C487.9,399.86 503.9051,418.3627 515.4651,433.1527" fill="none" id="UC_DespesasRec-to-UC_Entrar" style="stroke:#181818;stroke-width:1;"/><polygon fill="#181818" points="519.16,437.88,516.7692,428.3257,516.0809,433.9406,510.4661,433.2523,519.16,437.88" style="stroke:#181818;stroke-width:1;"/><text fill="#000000" font-family="sans-serif" font-size="13" lengthAdjust="spacing" textLength="63.0068" x="403.1" y="342.6369">«include»</text></g><!--link UC_Entradas to UC_Entrar--><g class="link" data-entity-1="UC_Entradas" data-entity-2="UC_Entrar" data-source-line="22" data-uid="lnk17" id="link_UC_Entradas_UC_Entrar"><path d="M307.76,384.04 C352.12,394.28 413.94,409.67 467.1,427 C480.23,431.28 489.0206,434.6247 500.6506,439.4647" fill="none" id="UC_Entradas-to-UC_Entrar" style="stroke:#181818;stroke-width:1;"/><polygon fill="#181818" points="506.19,441.77,499.4177,434.619,501.5738,439.8489,496.3439,442.005,506.19,441.77" style="stroke:#181818;stroke-width:1;"/><text fill="#000000" font-family="sans-serif" font-size="13" lengthAdjust="spacing" textLength="63.0068" x="403.1" y="405.2869">«include»</text></g><!--link UC_EntradasRec to UC_Entrar--><g class="link" data-entity-1="UC_EntradasRec" data-entity-2="UC_Entrar" data-source-line="23" data-uid="lnk18" id="link_UC_EntradasRec_UC_Entrar"><path d="M370.01,452 C416.38,452 459.54,452 490.87,452" fill="none" id="UC_EntradasRec-to-UC_Entrar" style="stroke:#181818;stroke-width:1;"/><polygon fill="#181818" points="496.87,452,487.87,448,491.87,452,487.87,456,496.87,452" style="stroke:#181818;stroke-width:1;"/><text fill="#000000" font-family="sans-serif" font-size="13" lengthAdjust="spacing" textLength="63.0068" x="403.1" y="448.0669">«include»</text></g><!--link UC_Patrimonio to UC_Entrar--><g class="link" data-entity-1="UC_Patrimonio" data-entity-2="UC_Entrar" data-source-line="24" data-uid="lnk19" id="link_UC_Patrimonio_UC_Entrar"><path d="M310.57,519.95 C354.7,509.48 415.04,494.09 467.1,477 C480.22,472.69 489.0089,469.3413 500.6389,464.5113" fill="none" id="UC_Patrimonio-to-UC_Entrar" style="stroke:#181818;stroke-width:1;"/><polygon fill="#181818" points="506.18,462.21,496.3341,461.9678,501.5624,464.1277,499.4025,469.356,506.18,462.21" style="stroke:#181818;stroke-width:1;"/><text fill="#000000" font-family="sans-serif" font-size="13" lengthAdjust="spacing" textLength="63.0068" x="403.1" y="473.0669">«include»</text></g><!--link UC_Investimentos to UC_Entrar--><g class="link" data-entity-1="UC_Investimentos" data-entity-2="UC_Entrar" data-source-line="25" data-uid="lnk20" id="link_UC_Investimentos_UC_Entrar"><path d="M312.26,594.25 C358.59,579.9 420.91,555.82 467.1,520 C487.77,503.97 503.7843,485.491 515.3943,470.771" fill="none" id="UC_Investimentos-to-UC_Entrar" style="stroke:#181818;stroke-width:1;"/><polygon fill="#181818" points="519.11,466.06,510.3958,470.6494,516.0136,469.9858,516.6771,475.6036,519.11,466.06" style="stroke:#181818;stroke-width:1;"/><text fill="#000000" font-family="sans-serif" font-size="13" lengthAdjust="spacing" textLength="63.0068" x="403.1" y="516.0669">«include»</text></g><!--link UC_Resumo to UC_Entrar--><g class="link" data-entity-1="UC_Resumo" data-entity-2="UC_Entrar" data-source-line="26" data-uid="lnk21" id="link_UC_Resumo_UC_Entrar"><path d="M327.82,150.15 C375.69,165.28 433.64,191.88 467.1,237 C514.45,300.87 525.6652,393.9065 528.4352,431.1665" fill="none" id="UC_Resumo-to-UC_Entrar" style="stroke:#181818;stroke-width:1;"/><polygon fill="#181818" points="528.88,437.15,532.2018,427.8782,528.5093,432.1638,524.2238,428.4713,528.88,437.15" style="stroke:#181818;stroke-width:1;"/><text fill="#000000" font-family="sans-serif" font-size="13" lengthAdjust="spacing" textLength="63.0068" x="403.1" y="178.4369">«include»</text></g><!--link UC_Sair to UC_Entrar--><g class="link" data-entity-1="UC_Sair" data-entity-2="UC_Entrar" data-source-line="28" data-uid="lnk22" id="link_UC_Sair_UC_Entrar"><path d="M269.49,750.03 C314.21,744.67 417.7,725.57 467.1,661 C514.05,599.63 525.4558,509.3312 528.3558,472.7512" fill="none" id="UC_Sair-to-UC_Entrar" style="stroke:#181818;stroke-width:1;"/><polygon fill="#181818" points="528.83,466.77,524.1312,475.4257,528.4348,471.7544,532.1062,476.058,528.83,466.77" style="stroke:#181818;stroke-width:1;"/><text fill="#000000" font-family="sans-serif" font-size="13" lengthAdjust="spacing" textLength="63.0068" x="403.1" y="657.0669">«include»</text></g><!--link UC_Conta to UC_Entrar--><g class="link" data-entity-1="UC_Conta" data-entity-2="UC_Entrar" data-source-line="29" data-uid="lnk23" id="link_UC_Conta_UC_Entrar"><path d="M304.61,674.06 C326.33,668.69 350.98,661.15 372.1,651 C419.13,628.4 433.65,622.05 467.1,582 C497.44,545.66 515.2718,497.8315 523.4918,472.2915" fill="none" id="UC_Conta-to-UC_Entrar" style="stroke:#181818;stroke-width:1;"/><polygon fill="#181818" points="525.33,466.58,518.765,473.9217,523.7981,471.3396,526.3803,476.3727,525.33,466.58" style="stroke:#181818;stroke-width:1;"/><text fill="#000000" font-family="sans-serif" font-size="13" lengthAdjust="spacing" textLength="63.0068" x="403.1" y="578.0669">«include»</text></g><!--link User to UC_Cadastrar--><g class="link" data-entity-1="User" data-entity-2="UC_Cadastrar" data-source-line="33" data-uid="lnk24" id="link_User_UC_Cadastrar"><path d="M35.87,383.4 C41.29,304.86 57.68,130.4 98.2,89 C123.3,63.37 157.695,56.2154 189.945,54.8954" fill="none" id="User-to-UC_Cadastrar" style="stroke:#181818;stroke-width:1;"/><polygon fill="#181818" points="195.94,54.65,186.7839,51.0214,190.9442,54.8545,187.1111,59.0147,195.94,54.65" style="stroke:#181818;stroke-width:1;"/></g><!--link User to UC_Resumo--><g class="link" data-entity-1="User" data-entity-2="UC_Resumo" data-source-line="34" data-uid="lnk25" id="link_User_UC_Resumo"><path d="M38.93,383.82 C48.26,322.17 69.38,204.62 98.2,175 C111.92,160.91 124.2766,153.3227 143.0166,146.8727" fill="none" id="User-to-UC_Resumo" style="stroke:#181818;stroke-width:1;"/><polygon fill="#181818" points="148.69,144.92,138.8782,144.0668,143.9622,146.5472,141.4817,151.6313,148.69,144.92" style="stroke:#181818;stroke-width:1;"/></g><!--link User to UC_Saidas--><g class="link" data-entity-1="User" data-entity-2="UC_Saidas" data-source-line="35" data-uid="lnk26" id="link_User_UC_Saidas"><path d="M37.1,383.66 C42.87,343.26 58.1,280.64 98.2,245 C118.62,226.85 140.7971,218.6789 167.0271,214.1589" fill="none" id="User-to-UC_Saidas" style="stroke:#181818;stroke-width:1;"/><polygon fill="#181818" points="172.94,213.14,163.3914,210.7265,168.0126,213.9891,164.75,218.6103,172.94,213.14" style="stroke:#181818;stroke-width:1;"/></g><!--link User to UC_DespesasRec--><g class="link" data-entity-1="User" data-entity-2="UC_DespesasRec" data-source-line="36" data-uid="lnk27" id="link_User_UC_DespesasRec"><path d="M54.42,383.68 C65.43,366.61 80.36,347.57 98.2,335 C114.56,323.48 128.2303,316.7645 147.4703,310.3245" fill="none" id="User-to-UC_DespesasRec" style="stroke:#181818;stroke-width:1;"/><polygon fill="#181818" points="153.16,308.42,143.3558,307.4835,148.4186,310.0071,145.895,315.0698,153.16,308.42" style="stroke:#181818;stroke-width:1;"/></g><!--link User to UC_Entradas--><g class="link" data-entity-1="User" data-entity-2="UC_Entradas" data-source-line="37" data-uid="lnk28" id="link_User_UC_Entradas"><path d="M59.46,413 C68.77,409.93 79.4,406.61 89.2,404 C119.61,395.91 147.866,389.7043 176.526,383.9843" fill="none" id="User-to-UC_Entradas" style="stroke:#181818;stroke-width:1;"/><polygon fill="#181818" points="182.41,382.81,172.8012,380.6489,177.5067,383.7886,174.3669,388.4941,182.41,382.81" style="stroke:#181818;stroke-width:1;"/></g><!--link User to UC_EntradasRec--><g class="link" data-entity-1="User" data-entity-2="UC_EntradasRec" data-source-line="38" data-uid="lnk29" id="link_User_UC_EntradasRec"><path d="M59.66,425.68 C80.84,428.67 106.2289,432.2514 137.1889,436.6214" fill="none" id="User-to-UC_EntradasRec" style="stroke:#181818;stroke-width:1;"/><polygon fill="#181818" points="143.13,437.46,134.7774,432.2414,138.1791,436.7612,133.6593,440.1629,143.13,437.46" style="stroke:#181818;stroke-width:1;"/></g><!--link User to UC_Patrimonio--><g class="link" data-entity-1="User" data-entity-2="UC_Patrimonio" data-source-line="39" data-uid="lnk30" id="link_User_UC_Patrimonio"><path d="M59.53,460.21 C70.13,473.27 83.39,486.87 98.2,496 C119.99,509.43 140.5234,516.7821 164.9434,522.4121" fill="none" id="User-to-UC_Patrimonio" style="stroke:#181818;stroke-width:1;"/><polygon fill="#181818" points="170.79,523.76,162.9187,517.8403,165.9178,522.6367,161.1214,525.6359,170.79,523.76" style="stroke:#181818;stroke-width:1;"/></g><!--link User to UC_Investimentos--><g class="link" data-entity-1="User" data-entity-2="UC_Investimentos" data-source-line="40" data-uid="lnk31" id="link_User_UC_Investimentos"><path d="M40.55,460.59 C48.65,494.45 65.36,542.6 98.2,571 C115.21,585.7 131.322,593.479 153.032,599.409" fill="none" id="User-to-UC_Investimentos" style="stroke:#181818;stroke-width:1;"/><polygon fill="#181818" points="158.82,600.99,151.192,594.7599,153.9967,599.6725,149.0841,602.4772,158.82,600.99" style="stroke:#181818;stroke-width:1;"/></g><!--link User to UC_Sair--><g class="link" data-entity-1="User" data-entity-2="UC_Sair" data-source-line="41" data-uid="lnk32" id="link_User_UC_Sair"><path d="M36.82,460.42 C43.66,532.46 62.03,683.84 98.2,720 C132.03,753.81 186.5486,756.0405 218.6986,754.3205" fill="none" id="User-to-UC_Sair" style="stroke:#181818;stroke-width:1;"/><polygon fill="#181818" points="224.69,754,215.4892,750.4865,219.6971,754.2671,215.9165,758.4751,224.69,754" style="stroke:#181818;stroke-width:1;"/></g><!--link User to UC_Conta--><g class="link" data-entity-1="User" data-entity-2="UC_Conta" data-source-line="42" data-uid="lnk33" id="link_User_UC_Conta"><path d="M33.16,460.43 C34.76,511.43 45.55,600.87 98.2,651 C118.34,670.17 141.08,678.4063 167.82,682.5263" fill="none" id="User-to-UC_Conta" style="stroke:#181818;stroke-width:1;"/><polygon fill="#181818" points="173.75,683.44,165.4641,678.1161,168.8083,682.6786,164.2458,686.0228,173.75,683.44" style="stroke:#181818;stroke-width:1;"/></g><!--SRC=[bLH1JiCm4Bpd5QjSUke7K5K95QYGUa2joXMjdALOIcomdGg1U0pYm8aRl20Vmudhn2vD6tBRsHdlnhFhdEuD60cARnuCP5mHCroA945cf89qhSlgNN6P0cfOQr99KbDGR7A2TAvGu89l5QNmce3zIaqCjKrT2gDGETdipaKnOuOPwf3K0Z7lbkiIS_w22fQaoqB25HSe674blTGbOjsS50d6hMo5rPSzsfDNo6tKHxuW_KZQCfV4fBAeeLRfSpRL9s_-D2ZcurFyG-LyxaYv6pIA5zMtuErTE4XQf4zqBRQa3IziCTaMYy16EUgq2_vKsakBfLxfaoxNLtGcXS7MwZg8cTOL5JXa1ytriAGScHr9T9r1Hi05oqjTVRWVR1s5yNZQ3HkSmMJIC3EQJZqpS708lNNd7zo1HtSs3M57xWmHx5Rb57Fqrq2lYKlMKdes9BAkHctJa5uQjuyItv9a1ETQIpigrMVrGngOB43QyN3lJrA_FVw8xg48qTqR44AxJG-XS8L3lDtJG-0-ELYn48vNQA-HkDdcIdu1]--></g></svg>